<svg xmlns="http://www.w3.org/2000/svg" width="227.545" height="235.898" viewBox="0 0 227.545 235.898">
  <g id="Group_17" data-name="Group 17" transform="translate(0 -703.499)" opacity="0.2">
    <path id="Path_158" data-name="Path 158" d="M928.9,717.629a11.374,11.374,0,0,0-8.544-13.794,11.723,11.723,0,0,0-14.168,8.318c-1.553,6.106.993,43.483.993,43.483s20.166-31.9,21.719-38.008" transform="translate(-740.894 0)" fill="#fff"/>
    <path id="Path_159" data-name="Path 159" d="M1018.449,942.626a11.817,11.817,0,0,0-15.327-6.067c-5.953,2.445-35.178,26.81-35.178,26.81s38.32-3.376,44.273-5.821a11.282,11.282,0,0,0,6.232-14.921" transform="translate(-791.827 -189.919)" fill="#fff"/>
    <path id="Path_160" data-name="Path 160" d="M194.519,1021.994c-29.654-21.308-26.439-48.292-23.4-59.531a11.775,11.775,0,0,0-5.423-1.3,11.549,11.549,0,0,0-8.522,3.715,74.036,74.036,0,0,0-16.638,72.316l10.385,33.478-49.51-26.935A11.086,11.086,0,0,1,97,1028.4l41.585-72.448a48.658,48.658,0,0,0-2.77-52.95,11.433,11.433,0,0,0-11.234-4.563c1.976,15.84-1.549,42.994-41.372,61.53L0,1098.741H220.161Z" transform="translate(0 -159.344)" fill="#fff"/>
    <path id="Path_161" data-name="Path 161" d="M509.81,911.039a10.472,10.472,0,0,0-5.307,4.43l-29.634,49.709c32.031-16.693,36.2-39.575,34.941-54.139" transform="translate(-388.467 -169.778)" fill="#fff"/>
    <path id="Path_162" data-name="Path 162" d="M965.271,1319.652l-15.752-46.975a10.3,10.3,0,0,0-3.314-4.742c-3.615,13.091-1.82,33.239,19.066,51.718" transform="translate(-772.83 -461.736)" fill="#fff"/>
  </g>
</svg>
