<svg xmlns="http://www.w3.org/2000/svg" width="241.084" height="241.084" viewBox="0 0 241.084 241.084">
  <g id="Group_76" data-name="Group 76" transform="translate(-57.396 -920.603)">
    <g id="Group_74" data-name="Group 74">
      <g id="Group_73" data-name="Group 73">
        <g id="Group_70" data-name="Group 70">
          <circle id="Ellipse_19" data-name="Ellipse 19" cx="85.236" cy="85.236" r="85.236" transform="translate(57.397 1041.146) rotate(-45)" fill="#ffd05d"/>
        </g>
        <g id="Group_71" data-name="Group 71">
          <path id="Path_253" data-name="Path 253" d="M222.533,968.4a85.248,85.248,0,0,1-116.42,118.561A85.243,85.243,0,1,0,222.533,968.4Z" fill="#fdc453"/>
        </g>
        <g id="Group_72" data-name="Group 72">
          <path id="Path_254" data-name="Path 254" d="M104.287,1050.138A79.136,79.136,0,0,1,246.155,1001.9,79.142,79.142,0,1,0,114.8,1089.581,78.77,78.77,0,0,1,104.287,1050.138Z" fill="#ffd77f"/>
        </g>
      </g>
    </g>
    <path id="Path_255" data-name="Path 255" d="M195.933,1075.413a27.046,27.046,0,0,0-18-6.446,28.457,28.457,0,0,0-17.879,6.483,25.067,25.067,0,0,0-5.98,7.4,20.251,20.251,0,0,0-2.339,8.961,1.645,1.645,0,0,0,2.945,1.024,37.54,37.54,0,0,1,5.112-5.539,28.907,28.907,0,0,1,5.683-3.792,28.471,28.471,0,0,1,12.542-3.029,26.133,26.133,0,0,1,12.389,2.947,32.131,32.131,0,0,1,10.777,9.4,1.645,1.645,0,0,0,2.954-1.02C204.048,1085.858,200.977,1079.728,195.933,1075.413Z" fill="#5e4939"/>
    <g id="Group_75" data-name="Group 75">
      <path id="Path_256" data-name="Path 256" d="M239.287,1054.952h0c-1.118-.325-2.2-.628-3.314-.939-2.306-.645-4.485-1.256-6.588-1.986a58.807,58.807,0,0,1-8.681-3.69,51.609,51.609,0,0,1-7.842-5.088,77.71,77.71,0,0,1-7.477-6.854.825.825,0,0,0-1.411.621A20.129,20.129,0,0,0,208.1,1047.8a26.23,26.23,0,0,0,8.9,7.568,27.711,27.711,0,0,0,10.744,3.088l.435.028q.775.042,1.531.042a22.539,22.539,0,0,0,9.7-2.038.825.825,0,0,0-.121-1.539Zm-.1.36Z" fill="#303030"/>
      <path id="Path_257" data-name="Path 257" d="M151.412,1036.219a.83.83,0,0,0-.92.175,77.4,77.4,0,0,1-7.479,6.855,51.47,51.47,0,0,1-7.839,5.086,58.743,58.743,0,0,1-8.684,3.692c-2.1.729-4.279,1.34-6.634,2-1.061.3-2.148.6-3.265.925h0a.826.826,0,0,0-.12,1.539,22.532,22.532,0,0,0,9.7,2.038q.756,0,1.531-.042l.435-.028a27.687,27.687,0,0,0,10.742-3.088,26.233,26.233,0,0,0,8.9-7.569,20.138,20.138,0,0,0,4.123-10.787A.829.829,0,0,0,151.412,1036.219Z" fill="#303030"/>
    </g>
  </g>
</svg>
