<svg xmlns="http://www.w3.org/2000/svg" width="241.084" height="241.084" viewBox="0 0 241.084 241.084">
  <g id="Group_98" data-name="Group 98" transform="translate(-279.272 -476.64)">
    <g id="Group_96" data-name="Group 96">
      <g id="Group_91" data-name="Group 91">
        <g id="Group_90" data-name="Group 90">
          <g id="Group_87" data-name="Group 87">
            <circle id="Ellipse_21" data-name="Ellipse 21" cx="85.236" cy="85.236" r="85.236" transform="translate(279.272 597.182) rotate(-45)" fill="#ffd05d"/>
          </g>
          <g id="Group_88" data-name="Group 88">
            <path id="Path_263" data-name="Path 263" d="M444.409,524.432A85.249,85.249,0,0,1,327.988,642.994,85.243,85.243,0,1,0,444.409,524.432Z" fill="#fdc453"/>
          </g>
          <g id="Group_89" data-name="Group 89">
            <path id="Path_264" data-name="Path 264" d="M326.163,606.174a79.135,79.135,0,0,1,141.867-48.24,79.142,79.142,0,1,0-131.352,87.683A78.769,78.769,0,0,1,326.163,606.174Z" fill="#ffd77f"/>
          </g>
        </g>
      </g>
      <path id="Path_265" data-name="Path 265" d="M432.044,608.028c.892-.1,1.4,1,1.393,1.824a25.994,25.994,0,0,1-3,11.5,32.154,32.154,0,0,1-7.674,9.494,36.507,36.507,0,0,1-22.943,8.32,34.706,34.706,0,0,1-23.1-8.272c-6.468-5.534-10.408-13.392-10.531-21.016-.014-.872.574-2,1.545-1.823.8.144,1.454,1.232,2.042,1.721q1.365,1.135,2.819,2.155a56.882,56.882,0,0,0,6.036,3.691,45.281,45.281,0,0,0,25.1,5.547,43.277,43.277,0,0,0,15.894-4.687,55.571,55.571,0,0,0,8.439-5.371c1.005-.769,2.657-2.835,3.9-3.07Z" fill="#5e4939"/>
      <g id="Group_95" data-name="Group 95">
        <g id="Group_94" data-name="Group 94">
          <g id="Group_93" data-name="Group 93">
            <g id="Group_92" data-name="Group 92">
              <path id="Path_266" data-name="Path 266" d="M373.692,581.928c0,5.847-2.812,10.586-6.28,10.586s-6.28-4.739-6.28-10.586,2.811-10.586,6.28-10.586S373.692,576.082,373.692,581.928Z" fill="#303030"/>
            </g>
          </g>
        </g>
        <path id="Path_267" data-name="Path 267" d="M443.693,585.442a15.792,15.792,0,0,0-29.2-.291,2.538,2.538,0,0,0,4.1,2.809c4.728-4.586,12.205-8.266,20.97.249a2.539,2.539,0,0,0,4.129-2.767Z" fill="#303030"/>
      </g>
    </g>
    <g id="Group_97" data-name="Group 97">
      <path id="Path_268" data-name="Path 268" d="M468.03,518.907c-6.266,30.437-30.119,37.6-30.119,37.6s23.853,7.161,30.119,37.6c6.267-30.437,30.119-37.6,30.119-37.6S474.3,549.344,468.03,518.907Z" fill="#fff"/>
      <path id="Path_269" data-name="Path 269" d="M468.03,518.907c-6.266,30.437-30.119,37.6-30.119,37.6S469.925,561.192,468.03,518.907Z" fill="#f1f2f2"/>
    </g>
  </g>
</svg>
