<svg xmlns="http://www.w3.org/2000/svg" width="195.578" height="195.578" viewBox="0 0 195.578 195.578">
  <g id="Group_60" data-name="Group 60" transform="translate(-993.848 -281.411)">
    <g id="Group_57" data-name="Group 57">
      <g id="Group_54" data-name="Group 54">
        <circle id="Ellipse_17" data-name="Ellipse 17" cx="85.236" cy="85.236" r="85.236" transform="translate(993.848 449.682) rotate(-80.783)" fill="#ffd05d"/>
      </g>
      <g id="Group_55" data-name="Group 55">
        <path id="Path_241" data-name="Path 241" d="M1136.231,306.451A85.249,85.249,0,0,1,1019.81,425.012a85.243,85.243,0,1,0,116.421-118.561Z" fill="#fdc453"/>
      </g>
      <g id="Group_56" data-name="Group 56">
        <path id="Path_242" data-name="Path 242" d="M1017.985,388.193a79.135,79.135,0,0,1,141.868-48.241A79.142,79.142,0,1,0,1028.5,427.635,78.767,78.767,0,0,1,1017.985,388.193Z" fill="#ffd77f"/>
      </g>
    </g>
    <g id="Group_58" data-name="Group 58">
      <path id="Path_243" data-name="Path 243" d="M1055.409,396.643a36.462,36.462,0,0,0,72.456,0Z" fill="#695342"/>
      <path id="Path_244" data-name="Path 244" d="M1066.612,419.02a36.429,36.429,0,0,0,49.195.787l-.335-.784C1091.143,407.16,1066.943,418.859,1066.612,419.02Z" fill="#f06669"/>
    </g>
    <g id="Group_59" data-name="Group 59">
      <path id="Path_245" data-name="Path 245" d="M1079.883,354.416c0-.042,0-.084,0-.126,0-7.871-5.693-15.078-14.253-15.078-6.8,0-10.745,4.888-12.091,9.464h0c-1.345-4.576-5.289-9.464-12.091-9.464-8.56,0-14.252,7.207-14.252,15.078,0,.042,0,.084,0,.126-.046,1.712,0,19.138,26.332,33.341v0l0,0,0,0,0,0,0,0v0C1079.886,373.554,1079.928,356.128,1079.883,354.416Z" fill="#e62728"/>
      <path id="Path_246" data-name="Path 246" d="M1156.072,354.416c0-.042,0-.084,0-.126,0-7.871-5.693-15.078-14.252-15.078-6.8,0-10.746,4.888-12.092,9.464h0c-1.345-4.576-5.289-9.464-12.091-9.464-8.56,0-14.252,7.207-14.252,15.078,0,.042,0,.084,0,.126-.046,1.712,0,19.138,26.333,33.341v0l0,0,0,0,0,0,0,0v0C1156.075,373.554,1156.118,356.128,1156.072,354.416Z" fill="#e62728"/>
    </g>
  </g>
</svg>
