<svg xmlns="http://www.w3.org/2000/svg" width="24.2" height="21.313" viewBox="0 0 24.2 21.313">
  <g id="Group_2921" data-name="Group 2921" transform="translate(-198.171 -640.8)">
    <g id="shopping-cart" transform="translate(198.171 644.016)">
      <path id="Path_689" data-name="Path 689" d="M17.126,3.074a2.257,2.257,0,0,0-1.737-.812H3.2L3.167,2A2.262,2.262,0,0,0,.921,0H.754a.754.754,0,0,0,0,1.508H.921a.754.754,0,0,1,.749.666L2.708,11a3.77,3.77,0,0,0,3.744,3.331h7.874a.754.754,0,0,0,0-1.508H6.452A2.262,2.262,0,0,1,4.326,11.31h8.988a3.77,3.77,0,0,0,3.711-3.1l.592-3.283a2.258,2.258,0,0,0-.49-1.852Zm-.99,1.584-.593,3.283A2.262,2.262,0,0,1,13.314,9.8H4.086L3.377,3.77H15.39a.754.754,0,0,1,.746.888Z" fill="#707070"/>
      <circle id="Ellipse_80" data-name="Ellipse 80" cx="1.508" cy="1.508" r="1.508" transform="translate(3.77 15.081)" fill="#707070"/>
      <circle id="Ellipse_81" data-name="Ellipse 81" cx="1.508" cy="1.508" r="1.508" transform="translate(11.31 15.081)" fill="#707070"/>
    </g>
    <g id="Ellipse_87" data-name="Ellipse 87" transform="translate(210.861 641)" fill="#fff" stroke="#707070" stroke-width="1">
      <circle cx="5.655" cy="5.655" r="5.655" stroke="none"/>
      <circle cx="5.655" cy="5.655" r="5.155" fill="none"/>
    </g>
    <path id="clock-three-2" d="M5.655,11.31A5.655,5.655,0,1,1,11.31,5.655,5.661,5.661,0,0,1,5.655,11.31Zm0-10.368a4.713,4.713,0,1,0,4.713,4.713A4.718,4.718,0,0,0,5.655.943ZM8.012,5.655a.471.471,0,0,0-.471-.471H6.126V2.828a.471.471,0,1,0-.943,0V5.655a.471.471,0,0,0,.471.471H7.54A.471.471,0,0,0,8.012,5.655Z" transform="translate(210.861 641)" fill="#707070" stroke="#fff" stroke-width="0.4"/>
  </g>
</svg>
