<!--?xml version="1.0" standalone="no"?-->
              <svg id="sw-js-blob-svg" viewBox="0 0 100 100" xmlns="http://www.w3.org/2000/svg" version="1.1">
                    <defs> 
                        <linearGradient id="sw-gradient" x1="0" x2="1" y1="1" y2="0">
                            <stop id="stop1" stop-color="rgba(248, 117, 55, 1)" offset="0%"></stop>
                            <stop id="stop2" stop-color="rgba(251, 168, 31, 1)" offset="100%"></stop>
                        </linearGradient>
                    </defs>
                <path fill="url(#sw-gradient)" d="M16,-31.1C20.2,-25.3,22.8,-20,24.8,-14.9C26.7,-9.8,28.1,-4.9,29.1,0.6C30.1,6,30.7,12.1,28.5,16.8C26.3,21.5,21.3,24.9,16.1,27.6C10.9,30.3,5.4,32.4,-0.9,33.9C-7.2,35.4,-14.3,36.3,-20.3,34.1C-26.3,31.8,-31.1,26.3,-34.1,20C-37,13.8,-38,6.9,-36.9,0.6C-35.9,-5.7,-32.7,-11.4,-28.8,-15.8C-24.9,-20.3,-20.1,-23.4,-15.2,-28.8C-10.2,-34.2,-5.1,-41.8,0.4,-42.4C5.9,-43.1,11.8,-36.9,16,-31.1Z" width="100%" height="100%" transform="translate(50 50)" stroke-width="0" style="transition: all 0.3s ease 0s;" stroke="url(#sw-gradient)"></path>
              </svg>