<svg xmlns="http://www.w3.org/2000/svg" width="22.592" height="22.594" viewBox="0 0 22.592 22.594">
  <path id="book-arrow-right" d="M21.777,11.384,20.258,12.9a.941.941,0,0,1-1.331-1.331l1.217-1.217H12.238a.942.942,0,0,1,0-1.883h7.906L18.927,7.255a.941.941,0,0,1,1.331-1.331l1.519,1.519a2.791,2.791,0,0,1,0,3.942Zm-2.949,3.678v2.824a4.712,4.712,0,0,1-4.707,4.707H3.766A3.769,3.769,0,0,1,0,18.828V4.707A4.712,4.712,0,0,1,4.707,0h9.414A4.707,4.707,0,0,1,18.68,3.53.942.942,0,0,1,16.856,4a2.822,2.822,0,0,0-2.735-2.118H5.648v13.18h11.3a.942.942,0,0,1,1.883,0ZM1.883,4.707V15.586a3.727,3.727,0,0,1,1.883-.523V2.056A2.82,2.82,0,0,0,1.883,4.707Zm15.062,13.18v-.941H3.766a1.883,1.883,0,0,0,0,3.766H14.121A2.828,2.828,0,0,0,16.945,17.887Z" fill="#323137"/>
</svg>
