<svg id="camera" xmlns="http://www.w3.org/2000/svg" width="24" height="24" viewBox="0 0 24 24">
  <path id="Path_1178" data-name="Path 1178" d="M17.721,3,16.308,1.168A3.023,3.023,0,0,0,13.932,0H10.068A3.023,3.023,0,0,0,7.692,1.168L6.279,3Z" fill="#fff"/>
  <circle id="Ellipse_101" data-name="Ellipse 101" cx="4" cy="4" r="4" transform="translate(8 10)" fill="#fff"/>
  <path id="Path_1179" data-name="Path 1179" d="M19,5H5a5.006,5.006,0,0,0-5,5v9a5.006,5.006,0,0,0,5,5H19a5.006,5.006,0,0,0,5-5V10a5.006,5.006,0,0,0-5-5ZM12,20a6,6,0,1,1,6-6,6,6,0,0,1-6,6Z" fill="#fff"/>
</svg>
