<svg xmlns="http://www.w3.org/2000/svg" width="44.356" height="33.955" viewBox="0 0 44.356 33.955">
  <g id="Group_3151" data-name="Group 3151" transform="translate(-1192 -334.881)">
    <path id="Path_1186" data-name="Path 1186" d="M1192,363.612v-23.52a.532.532,0,0,0,.057-.116,5.887,5.887,0,0,1,6.294-5.088H1220c3.537,0,7.073-.021,10.61.012a5.855,5.855,0,0,1,5.555,4.4c.067.262.125.527.188.79v23.52a.358.358,0,0,0-.06.112,6,6,0,0,1-6.2,5.112c-5.557-.073-11.115-.02-16.672-.02q-7.708,0-15.417,0a5.872,5.872,0,0,1-5.611-3.8C1192.222,364.565,1192.129,364.082,1192,363.612Zm42.855-22.088h-.535q-5.522,0-11.045,0a1.518,1.518,0,0,1-1.711-1.7c0-.98,0-1.96,0-2.94v-.489h-14.742V367.3h14.742v-.6q0-8.754,0-17.509c0-1.225.544-1.768,1.767-1.768h11.524ZM1193.5,354.766h11.779v-5.838H1193.5Zm41.363-5.83h-11.779v5.838h11.779ZM1193.5,347.4h11.776V341.55H1193.5Zm11.786,14.756V356.3h-11.779v5.851Zm17.791-5.87v5.857h11.77v-5.857Zm-17.795-16.269v-3.631c-.117-.009-.2-.021-.288-.021-2.366,0-4.732,0-7.1,0a4.74,4.74,0,0,0-.943.1,4.324,4.324,0,0,0-3.357,3.547Zm29.5,0c-.012-.1-.014-.165-.029-.232a4.376,4.376,0,0,0-4.158-3.411c-2.423-.029-4.847-.01-7.271-.009a2.026,2.026,0,0,0-.253.032v3.62Zm-29.5,27.3c.01-.125.028-.237.028-.349,0-.965-.011-1.93.008-2.894.007-.323-.092-.417-.416-.416-3.65.01-7.3.006-10.95.008a3.529,3.529,0,0,0-.388.042,4.386,4.386,0,0,0,4.3,3.629c2.366.022,4.732.006,7.1.006C1205.066,367.34,1205.164,367.324,1205.283,367.314Zm29.491-3.616h-11.7v3.6a.694.694,0,0,0,.147.038c2.539,0,5.079.045,7.616-.024A4.292,4.292,0,0,0,1234.774,363.7Z" fill="#fff"/>
  </g>
</svg>
