<svg xmlns="http://www.w3.org/2000/svg" width="24" height="24" viewBox="0 0 24 24">
  <path id="circle-phone-flip" d="M12,24A12,12,0,1,1,24,12,12.013,12.013,0,0,1,12,24ZM12,2A10,10,0,1,0,22,12,10.011,10.011,0,0,0,12,2ZM7.636,13.971l-1.3,1a1.143,1.143,0,0,0,0,1.616l.522.6a2.8,2.8,0,0,0,2,.813C12.57,18,18,12.857,18,8.857a2.8,2.8,0,0,0-.813-2l-.6-.522a1.143,1.143,0,0,0-1.616,0l-1,1.3a1.143,1.143,0,0,0,0,1.616l.851,1.069a7.62,7.62,0,0,1-4.5,4.5l-1.069-.851a1.143,1.143,0,0,0-1.616,0Z" fill="#afaeb3"/>
</svg>
