<svg xmlns="http://www.w3.org/2000/svg" width="17.527" height="19.495" viewBox="0 0 17.527 19.495">
  <g id="Group_101" data-name="Group 101" transform="translate(-1081.851 -316.639)">
    <path id="Path_290" data-name="Path 290" d="M1089.854,374.935a3.293,3.293,0,0,0-.661-.11,8.647,8.647,0,0,1-5.456-3.227,8.407,8.407,0,0,1-1.794-4.162,8.721,8.721,0,0,1,1.175-5.83c.02-.033.036-.067.054-.1s.056-.069.08-.106a8.973,8.973,0,0,1,1.416-1.685,10.779,10.779,0,0,1,1.305-1.013,8.954,8.954,0,0,1,2.892-1.148,6.6,6.6,0,0,1,.975-.136,1.7,1.7,0,0,0,.2-.034l.571.006.005,2.165a2.721,2.721,0,0,1-.576.043,5.47,5.47,0,0,0-.933.15,6.525,6.525,0,0,0-4.649,4.1,5.5,5.5,0,0,0-.391,1.748,4.518,4.518,0,0,0,0,1.145,2.524,2.524,0,0,0,.086.676,6.534,6.534,0,0,0,4.19,4.93,5.659,5.659,0,0,0,1.7.379l.576.045q0,1.085,0,2.17Z" transform="translate(0 -38.8)" fill="#eb3e6d"/>
    <path id="Path_291" data-name="Path 291" d="M1265.563,375.049q0-1.085,0-2.17l.569-.048a6.389,6.389,0,0,0,2.694-.849,6.545,6.545,0,0,0,2.764-3.1,6.217,6.217,0,0,0,.511-2.035,4.2,4.2,0,0,0,0-1.152c-.03-.226-.049-.453-.092-.676a6.6,6.6,0,0,0-5.877-5.307,5.368,5.368,0,0,1-.568-.048q0-1.082-.005-2.165l.571.009a8.37,8.37,0,0,1,2.372.5,8.57,8.57,0,0,1,5.612,6.426,8.743,8.743,0,0,1-5.984,10.232,8.4,8.4,0,0,1-1.787.346c-.035,0-.078-.009-.1.037Z" transform="translate(-174.947 -38.914)" fill="#d51d4f"/>
    <path id="Path_292" data-name="Path 292" d="M1093.6,366.133a10.782,10.782,0,0,0-1.305,1.013,8.976,8.976,0,0,0-1.416,1.685c-.024.037-.053.071-.08.106-.217-.23-.46-.436-.656-.685a1.382,1.382,0,0,1,.012-1.69,9.1,9.1,0,0,1,.971-.988,1.38,1.38,0,0,1,1.964.049C1093.26,365.788,1093.426,365.962,1093.6,366.133Z" transform="translate(-7.623 -46.232)" fill="#fac21c"/>
    <path id="Path_293" data-name="Path 293" d="M1225.481,317.793l-.835-.006a.571.571,0,1,1,0-1.142c.468,0,.936,0,1.4.006v1.13Z" transform="translate(-135.436 -0.005)" fill="#eb3e6d"/>
    <path id="Path_294" data-name="Path 294" d="M1265.562,317.775q0-.565,0-1.13c.474,0,.948-.01,1.421,0a.568.568,0,0,1,0,1.136c-.284.01-.568.007-.853.009Z" transform="translate(-174.947)" fill="#d51d4f"/>
    <path id="Path_295" data-name="Path 295" d="M1254.17,340.445l.572.013q0,.405,0,.811l-.571-.009-.571-.006v-.8Z" transform="translate(-163.555 -22.67)" fill="#fac21c"/>
    <path id="Path_296" data-name="Path 296" d="M1134.36,416.9a5.658,5.658,0,0,1-1.7-.379,6.534,6.534,0,0,1-4.19-4.93,2.529,2.529,0,0,1-.086-.676c.253,0,.506,0,.758,0a.574.574,0,1,0,0-1.144c-.252-.005-.505,0-.758,0a5.5,5.5,0,0,1,.391-1.748,6.525,6.525,0,0,1,4.649-4.1,5.485,5.485,0,0,1,.933-.15c0,.246,0,.493,0,.739a.589.589,0,0,0,.569.668l0,1.936a.6.6,0,0,0-.536.7q0,1.328,0,2.656a.59.59,0,0,0,.535.682q0,2.167,0,4.334a.6.6,0,0,0-.57.687C1134.36,416.424,1134.36,416.663,1134.36,416.9Z" transform="translate(-44.316 -82.984)" fill="#f3f1e5"/>
    <path id="Path_297" data-name="Path 297" d="M1127.7,529.347c.253,0,.505-.005.758,0a.574.574,0,1,1,0,1.144c-.252.006-.505,0-.758,0A4.524,4.524,0,0,1,1127.7,529.347Z" transform="translate(-43.626 -202.558)" fill="#fac21c"/>
    <path id="Path_298" data-name="Path 298" d="M1253.592,650.784c0-.24,0-.479,0-.719a.6.6,0,0,1,.57-.687.59.59,0,0,1,.573.665c0,.246,0,.492,0,.738l-.569.048Z" transform="translate(-163.548 -316.865)" fill="#fac21c"/>
    <path id="Path_299" data-name="Path 299" d="M1254.167,404.331a.589.589,0,0,1-.569-.668c0-.246,0-.493,0-.739a2.721,2.721,0,0,0,.576-.043,5.353,5.353,0,0,0,.567.048q0,.37,0,.739A.587.587,0,0,1,1254.167,404.331Z" transform="translate(-163.553 -82.128)" fill="#fac21c"/>
    <path id="Path_300" data-name="Path 300" d="M1265.533,405.288a.587.587,0,0,0,.573-.663q0-.37,0-.739a6.6,6.6,0,0,1,5.877,5.307c.044.223.062.451.092.676-.24,0-.48,0-.72,0a.776.776,0,0,0-.333.061.568.568,0,0,0-.31.648.576.576,0,0,0,.586.443c.259.009.518,0,.776,0a6.215,6.215,0,0,1-.511,2.035,6.544,6.544,0,0,1-2.764,3.1,6.389,6.389,0,0,1-2.694.849c0-.246,0-.492,0-.738a.59.59,0,0,0-.573-.665q0-2.167,0-4.334c.463,0,.926,0,1.389-.006a.576.576,0,0,0,.591-.57.567.567,0,0,0-.586-.57c-.2,0-.407-.01-.609,0-.142.008-.182-.035-.181-.179.008-.679,0-1.358,0-2.037a.6.6,0,0,0-.606-.68Z" transform="translate(-174.919 -83.085)" fill="#95d0d8"/>
    <path id="Path_301" data-name="Path 301" d="M1375.236,530.4c-.259,0-.518.008-.777,0a.576.576,0,0,1-.586-.443.567.567,0,0,1,.31-.648.778.778,0,0,1,.333-.061c.24,0,.48,0,.72,0A4.2,4.2,0,0,1,1375.236,530.4Z" transform="translate(-278.078 -202.463)" fill="#fac21c"/>
    <path id="Path_302" data-name="Path 302" d="M1254.858,473.859a.6.6,0,0,1,.606.68c0,.679,0,1.358,0,2.037,0,.144.038.188.181.179.2-.012.406-.006.609,0a.567.567,0,0,1,.586.57.576.576,0,0,1-.591.57c-.463.006-.926,0-1.389.006a.59.59,0,0,1-.535-.682q0-1.328,0-2.656A.6.6,0,0,1,1254.858,473.859Z" transform="translate(-164.242 -149.719)" fill="#fac21c"/>
  </g>
</svg>
