<svg xmlns="http://www.w3.org/2000/svg" width="13.001" height="13.001" viewBox="0 0 13.001 13.001">
  <g id="Group_3146" data-name="Group 3146" transform="translate(0.5 0.5)">
    <path id="Subtraction_2" data-name="Subtraction 2" d="M-1379.413-1400.217H-1381a1,1,0,0,1-1-1v-1.586a3.97,3.97,0,0,1,1.172-2.828l5.708-5.708a2.98,2.98,0,0,1,2.121-.877,2.98,2.98,0,0,1,2.121.877,2.981,2.981,0,0,1,.879,2.121,2.985,2.985,0,0,1-.879,2.122l-5.707,5.707A3.975,3.975,0,0,1-1379.413-1400.217Zm6.414-10a.994.994,0,0,0-.707.293l-5.708,5.708a2.017,2.017,0,0,0-.586,1.414v.586h.586a1.987,1.987,0,0,0,1.414-.586l5.708-5.707a.994.994,0,0,0,.292-.707.994.994,0,0,0-.292-.707A.994.994,0,0,0-1373-1410.219Z" transform="translate(1382 1412.218)" fill="#707070" stroke="rgba(0,0,0,0)" stroke-width="1"/>
  </g>
</svg>
