<svg xmlns="http://www.w3.org/2000/svg" width="26.702" height="25.756" viewBox="0 0 26.702 25.756">
  <g id="Group_35" data-name="Group 35" transform="translate(26.702) rotate(90)">
    <path id="Path_137" data-name="Path 137" d="M2.628,4.3a1.288,1.288,0,0,1-.967,1.561,1.327,1.327,0,0,1-1.6-.942A41.792,41.792,0,0,1,.169,0,42.567,42.567,0,0,1,2.628,4.3" transform="translate(18.653 20.8)" fill="#fac21c"/>
    <path id="Path_138" data-name="Path 138" d="M5.717,2.348a1.338,1.338,0,0,1-1.735.687A43.931,43.931,0,0,1,0,0,45.217,45.217,0,0,1,5.011.659a1.277,1.277,0,0,1,.706,1.689" transform="translate(19.935 18.784)" fill="#fac21c"/>
    <path id="Path_139" data-name="Path 139" d="M22.018,8.687a6.046,6.046,0,0,0-2.648,6.738,1.332,1.332,0,0,1-.614.147,1.307,1.307,0,0,1-.965-.42,8.38,8.38,0,0,1-1.883-8.186l1.175-3.79-5.6,3.049a1.255,1.255,0,0,0-.5,1.735l4.707,8.2a5.508,5.508,0,0,1-.314,5.993,1.294,1.294,0,0,1-1.272.516c.224-1.793-.175-4.866-4.683-6.965L0,0H24.921Z" transform="translate(0)" fill="#fac21c"/>
    <path id="Path_140" data-name="Path 140" d="M3.955,6.128a1.186,1.186,0,0,1-.6-.5L0,0C3.626,1.89,4.1,4.48,3.955,6.128" transform="translate(9.78 16.299)" fill="#fac21c"/>
    <path id="Path_141" data-name="Path 141" d="M2.326,0,.543,5.317a1.167,1.167,0,0,1-.375.537C-.241,4.372-.038,2.092,2.326,0" transform="translate(19.457 9.223)" fill="#fac21c"/>
  </g>
</svg>
