<svg xmlns="http://www.w3.org/2000/svg" width="24.401" height="25.297" viewBox="0 0 24.401 25.297">
  <g id="Group_2908" data-name="Group 2908" transform="translate(0 -703.499)">
    <path id="Path_158" data-name="Path 158" d="M908.172,705.014a1.22,1.22,0,0,0-.916-1.479,1.257,1.257,0,0,0-1.519.892,39.567,39.567,0,0,0,.107,4.663,40.336,40.336,0,0,0,2.329-4.076" transform="translate(-888.012 0)" fill="#fac21c"/>
    <path id="Path_159" data-name="Path 159" d="M973.36,936.407a1.267,1.267,0,0,0-1.644-.651,41.587,41.587,0,0,0-3.772,2.875,42.808,42.808,0,0,0,4.748-.624,1.21,1.21,0,0,0,.668-1.6" transform="translate(-949.058 -227.631)" fill="#fac21c"/>
    <path id="Path_160" data-name="Path 160" d="M20.859,911.55a5.728,5.728,0,0,1-2.509-6.384,1.261,1.261,0,0,0-.582-.14,1.238,1.238,0,0,0-.914.4,7.939,7.939,0,0,0-1.784,7.755l1.114,3.59-5.309-2.888a1.189,1.189,0,0,1-.474-1.644l4.459-7.769a5.218,5.218,0,0,0-.3-5.678,1.226,1.226,0,0,0-1.2-.489c.212,1.7-.166,4.61-4.437,6.6L0,919.78H23.609Z" transform="translate(0 -190.984)" fill="#fac21c"/>
    <path id="Path_161" data-name="Path 161" d="M478.616,911.039a1.123,1.123,0,0,0-.569.475l-3.178,5.33c3.435-1.79,3.882-4.244,3.747-5.806" transform="translate(-465.604 -203.491)" fill="#fac21c"/>
    <path id="Path_162" data-name="Path 162" d="M946.925,1273.48l-1.689-5.037a1.106,1.106,0,0,0-.355-.509c-.388,1.4-.2,3.564,2.045,5.546" transform="translate(-926.288 -553.422)" fill="#fac21c"/>
  </g>
</svg>
