<?xml version="1.0" encoding="utf-8"?>
<!-- Generator: Adobe Illustrator 26.5.0, SVG Export Plug-In . SVG Version: 6.00 Build 0)  -->
<svg version="1.1" id="info" xmlns="http://www.w3.org/2000/svg" xmlns:xlink="http://www.w3.org/1999/xlink" x="0px" y="0px"
	 viewBox="0 0 24 24" style="enable-background:new 0 0 24 24;" xml:space="preserve">
<style type="text/css">
	.st0{fill:#323137;}
</style>
<g>
	<path class="st0" d="M23.3,16.5L20,13.3c-0.4-0.4-1-0.4-1.4,0c-0.4,0.4-0.4,1,0,1.4c0,0,0,0,0,0l2.3,2.3c-2.5,0-4.9-1-6.6-2.8
		c-0.4-0.4-1-0.3-1.4,0.1c0,0,0,0,0,0l0,0c-0.3,0.4-0.3,1,0.1,1.4c2.1,2.1,5,3.3,7.9,3.3l-2.3,2.3c-0.4,0.4-0.5,1-0.1,1.4
		c0.4,0.4,1,0.5,1.4,0.1c0,0,0.1-0.1,0.1-0.1l3.3-3.3C24.1,18.5,24.1,17.3,23.3,16.5z"/>
	<path class="st0" d="M20.9,7l-2.3,2.3c0,0,0,0.1-0.1,0.1c-0.3,0.4-0.3,1,0.1,1.4c0.4,0.3,1,0.3,1.3-0.1L21.7,9l1.6-1.6
		c0.5-0.5,0.7-1.4,0.5-2.1c-0.1-0.3-0.3-0.5-0.5-0.7L20,1.4C19.7,1,19,1,18.6,1.3s-0.4,1-0.1,1.4c0,0,0,0,0.1,0.1l2.3,2.3
		c-4.9,0-7.6,2.6-10,5.4C8.7,8,6.1,5.5,1.6,5.1l-0.5,0c-0.5,0-1,0.4-1,1c0,0.5,0.4,1,1,1c0.1,0,0.3,0,0.3,0C5.3,7.4,7.5,9.5,9.6,12
		c-2.1,2.4-4.3,4.6-8.2,4.9l-0.4,0c-0.5,0-1,0.5-0.9,1s0.5,1,1,0.9c0.2,0,0.4,0,0.5,0c5-0.4,7.7-3.6,10.1-6.3
		C14.2,9.7,16.5,7.1,20.9,7z"/>
</g>
</svg>
