<svg xmlns="http://www.w3.org/2000/svg" width="28.372" height="19.852" viewBox="0 0 28.372 19.852">
  <g id="menu" transform="translate(0 -0.006)">
    <path id="Path_163" data-name="Path 163" d="M0,115.992a.61.61,0,0,0,.051-.094,1.416,1.416,0,0,1,1.4-1.049c.267-.008.535,0,.8,0q12.231,0,24.461,0a2.369,2.369,0,0,1,.708.09,1.391,1.391,0,0,1,.942,1.466,1.406,1.406,0,0,1-1.209,1.258,3.42,3.42,0,0,1-.469.025q-12.452,0-24.9.01A1.621,1.621,0,0,1,0,116.546C0,116.362,0,116.177,0,115.992Z" transform="translate(0 -106.339)" fill="#fff"/>
    <path id="Path_164" data-name="Path 164" d="M106.417,2.838q-4.571,0-9.142,0A1.415,1.415,0,0,1,97.151.009c.064,0,.13,0,.194,0h18.2a1.431,1.431,0,0,1,1.472.985,1.417,1.417,0,0,1-1.32,1.845c-.517.013-1.034,0-1.552,0Z" transform="translate(-88.713)" fill="#fff"/>
    <path id="Path_165" data-name="Path 165" d="M180.23,232.708c-2.123,0-4.245.006-6.368,0a1.414,1.414,0,1,1-.009-2.828c.794-.007,1.587,0,2.381,0q5.15,0,10.3,0a1.427,1.427,0,0,1,1.5,1.316,1.407,1.407,0,0,1-1.44,1.514C184.476,232.713,182.353,232.708,180.23,232.708Z" transform="translate(-159.671 -212.852)" fill="#fff"/>
  </g>
</svg>
