<svg xmlns="http://www.w3.org/2000/svg" width="24" height="22.001" viewBox="0 0 24 22.001">
  <path id="money-check-edit" d="M24,7V8a1,1,0,0,1-2,0V7a3,3,0,0,0-3-3H5A3,3,0,0,0,2,7V17a3,3,0,0,0,3,3H8a1,1,0,0,1,0,2H5a5.006,5.006,0,0,1-5-5V7A5.006,5.006,0,0,1,5,2H19A5.006,5.006,0,0,1,24,7ZM15,9h4a1,1,0,0,0,0-2H15a1,1,0,0,0,0,2Zm8.121,2.879a3,3,0,0,1,0,4.243l-6.707,6.707A3.975,3.975,0,0,1,13.586,24H12a1,1,0,0,1-1-1V21.415a3.971,3.971,0,0,1,1.172-2.828l6.707-6.707a3,3,0,0,1,4.242,0ZM22,14a1,1,0,0,0-1.707-.707L13.586,20A2.017,2.017,0,0,0,13,21.414V22h.586A1.986,1.986,0,0,0,15,21.414l6.707-6.707A.993.993,0,0,0,22,14ZM9,15H6.732a1.007,1.007,0,0,1-.867-.5,1,1,0,1,0-1.73,1,3.008,3.008,0,0,0,2.6,1.5H7a1,1,0,0,0,2,0,3,3,0,0,0,3-3,2.762,2.762,0,0,0-2.315-2.733L6.645,10.76A.768.768,0,0,1,6,10,1,1,0,0,1,7,9H9.269a1.007,1.007,0,0,1,.867.5,1,1,0,1,0,1.73-1A3.009,3.009,0,0,0,9.268,7H9A1,1,0,0,0,7,7a3,3,0,0,0-3,3,2.762,2.762,0,0,0,2.315,2.733l3.041.507A.768.768,0,0,1,10,14a1,1,0,0,1-1,1Zm5-3a1,1,0,1,0,1-1A1,1,0,0,0,14,12Z" transform="translate(0 -2)" fill="#707070"/>
</svg>
