<svg id="Group_77" data-name="Group 77" xmlns="http://www.w3.org/2000/svg" width="24.001" height="24" viewBox="0 0 24.001 24">
  <path id="Path_197" data-name="Path 197" d="M5,24.033h5.917c7,0,12.613-4.792,13.055-11.146A12,12,0,0,0,11.169.061,12.209,12.209,0,0,0,0,12.373v6.66a5.006,5.006,0,0,0,5,5Zm6.985-22a10,10,0,0,1,9.989,10.715c-.372,5.38-5.023,9.285-11.058,9.285H5a3,3,0,0,1-3-3v-6.66A10.2,10.2,0,0,1,11.3,2.057c.229-.016.458-.023.687-.023Z" transform="translate(-0.004 -0.033)" fill="#cec9c9"/>
  <path id="Path_198" data-name="Path 198" d="M137.414,144.671H139a1,1,0,0,0,1-1v-1.586a3.971,3.971,0,0,0-1.172-2.828l-5.707-5.707a3,3,0,1,0-4.242,4.243l5.707,5.707a3.976,3.976,0,0,0,2.828,1.172Z" transform="translate(-122 -126.454)" fill="#707070"/>
  <path id="Path_199" data-name="Path 199" d="M178.667,183.309h-.586a1.986,1.986,0,0,1-1.414-.586l-5.707-5.707a1,1,0,1,1,1.414-1.414l5.707,5.707a2.017,2.017,0,0,1,.586,1.414v.586Z" transform="translate(-162.667 -167.093)" fill="#fff"/>
</svg>
