<svg xmlns="http://www.w3.org/2000/svg" width="14.021" height="14.021" viewBox="0 0 14.021 14.021">
  <path id="pencil" d="M13.4.709a2.126,2.126,0,0,0-3,0L.859,10.246A2.913,2.913,0,0,0,0,12.318v1.2a.586.586,0,0,0,.586.586h1.2a2.912,2.912,0,0,0,2.073-.858L13.4,3.713a2.126,2.126,0,0,0,0-3ZM3.034,12.421a1.772,1.772,0,0,1-1.244.515H1.173v-.617a1.747,1.747,0,0,1,.515-1.244L8.925,3.838l1.349,1.349ZM12.57,2.884,11.1,4.354,9.752,3.009l1.47-1.47a.953.953,0,1,1,1.346,1.349Z" transform="translate(0 -0.088)" fill="#afaeb3"/>
</svg>
