<svg xmlns="http://www.w3.org/2000/svg" width="18.639" height="18.639" viewBox="0 0 18.639 18.639">
  <path id="phone-call" d="M10.121.778A.778.778,0,0,1,10.9,0a7.788,7.788,0,0,1,7.779,7.779.778.778,0,0,1-1.556,0A6.23,6.23,0,0,0,10.9,1.555a.778.778,0,0,1-.778-.778Zm.778,3.89a3.112,3.112,0,0,1,3.112,3.112.778.778,0,0,0,1.556,0A4.672,4.672,0,0,0,10.9,3.111a.778.778,0,1,0,0,1.556Zm7.073,8.354a2.412,2.412,0,0,1,0,3.406l-.708.816C10.894,23.342-4.61,7.842,1.4,1.451L2.29.673A2.4,2.4,0,0,1,5.656.7C5.68.729,7.122,2.6,7.122,2.6a2.412,2.412,0,0,1-.005,3.331l-.9,1.133a9.942,9.942,0,0,0,5.392,5.4l1.14-.906a2.412,2.412,0,0,1,3.33,0S17.949,13,17.973,13.021ZM16.9,14.152S15.041,12.72,15.017,12.7a.856.856,0,0,0-1.2,0c-.021.022-1.59,1.272-1.59,1.272a.778.778,0,0,1-.762.118A11.676,11.676,0,0,1,4.6,7.234a.778.778,0,0,1,.113-.778s1.25-1.57,1.271-1.59a.856.856,0,0,0,0-1.2c-.024-.023-1.456-1.886-1.456-1.886a.856.856,0,0,0-1.175.03l-.895.778C-1.932,7.86,11.5,20.55,16.128,16.18l.709-.817a.872.872,0,0,0,.066-1.211Z" transform="translate(-0.039 0.002)" fill="#fff"/>
</svg>
