<svg xmlns="http://www.w3.org/2000/svg" width="15.305" height="15.305" viewBox="0 0 15.305 15.305">
  <path id="circle-phone-flip" d="M9.739,17.819,8.079,19.094a1.458,1.458,0,0,0,0,2.061l.666.765A3.576,3.576,0,0,0,11.3,22.958c4.737,0,11.661-6.56,11.661-11.661A3.576,3.576,0,0,0,21.92,8.746l-.765-.666a1.458,1.458,0,0,0-2.061,0L17.818,9.74a1.458,1.458,0,0,0,0,2.061L18.9,13.165A9.719,9.719,0,0,1,13.164,18.9L11.8,17.819a1.458,1.458,0,0,0-2.061,0Z" transform="translate(-7.652 -7.653)" fill="#00ce57"/>
</svg>
