<svg xmlns="http://www.w3.org/2000/svg" width="18.752" height="17.725" viewBox="0 0 18.752 17.725">
  <g id="Group_100" data-name="Group 100" transform="translate(-1313.895 -302.242)">
    <path id="Path_270" data-name="Path 270" d="M1317.569,312.572a.409.409,0,0,1-.128-.517c.163-.515.3-1.038.46-1.578-.108,0-.2,0-.288,0-.2-.007-.309-.105-.311-.3,0-.482-.007-.964,0-1.447a.4.4,0,0,1,.555-.409q.89.272,1.77.579a1.59,1.59,0,0,0,.7.072q.574-.056,1.149-.095a.352.352,0,0,0,.228-.091c.19-.171.444-.3.562-.515s.031-.5.084-.755c.029-.137.107-.3.061-.406s-.245-.1-.372-.153a1.9,1.9,0,0,1-1.125-1.918c.012-.111,0-.148-.123-.149-.24,0-.331-.106-.325-.339a2.327,2.327,0,0,1,4.636-.269,2.606,2.606,0,0,1-.574,2.051c-.047.056-.085.092,0,.157a4.342,4.342,0,0,1,1.446,2.235,8.949,8.949,0,0,1,.378,3.034c0,.133-.032.266-.05.413.362,0,.722,0,1.081,0,.087,0,.1-.036.1-.109,0-.177,0-.354,0-.531q0-1.465,0-2.93a1,1,0,0,1,1.078-1.084h3.022a.983.983,0,0,1,1.042.786c0,.009.018.013.027.02v3.626c-.059.043-.054.117-.082.175a.972.972,0,0,1-.893.594q-.622.015-1.245,0c-.145,0-.175.042-.165.173.011.152,0,.305,0,.457a.778.778,0,0,1-.269.686c-.058.047-.047.086-.022.139a4.245,4.245,0,0,1,.283,2.54,1.984,1.984,0,0,0,.051.467c0,.067.021.132.029.2.05.432-.06.63-.517.586-.114-.011-.124.059-.142.143a2.334,2.334,0,0,1-4.568.017c-.029-.134-.077-.161-.2-.161q-2.7.006-5.4,0c-.133,0-.187.026-.2.173-.036.3-.187.4-.485.316-.187-.055-.27-.031-.363.16a2.095,2.095,0,0,1-3.965-.985c0-.146-.044-.193-.171-.209a1.319,1.319,0,0,1-.2-.045.274.274,0,0,1-.217-.359,2.747,2.747,0,0,1,2.511-2.1.246.246,0,0,0,.276-.224c.1-.383.215-.761.327-1.14.069-.234.13-.279.377-.286a.339.339,0,0,1,.154.451c-.128.413-.237.832-.368,1.243a.261.261,0,0,0,.071.291c.581.643,1.173,1.277,1.728,1.942a.692.692,0,0,0,.7.21c-.2-.479-.381-.942-.53-1.419a8.189,8.189,0,0,1-.356-3.448,9.532,9.532,0,0,1,.407-1.872c.053-.161.017-.2-.142-.184a2.8,2.8,0,0,1-.439,0c-.112-.008-.157.033-.187.141-.151.539-.31,1.076-.467,1.614C1317.883,312.513,1317.854,312.538,1317.569,312.572Zm8.957,1.353c.057-.221.136-.283.377-.284l2.563-.006c.2,0,.245-.045.247-.249,0-.152-.01-.306,0-.457s-.033-.216-.207-.214q-1.547.012-3.094,0a.733.733,0,0,0-.641.2.745.745,0,0,1-.319.172,2.236,2.236,0,0,1-.734.131c-.372.008-.745,0-1.117.006-.208,0-.17.165-.188.29-.022.157.094.124.179.124.628,0,1.257,0,1.885,0,.241,0,.32.066.37.289-.056.215-.118.267-.347.268-.647,0-1.294,0-1.941,0-.118,0-.156.029-.155.152.006.58,0,1.16,0,1.74a1.532,1.532,0,0,1-.008.2.431.431,0,0,1-.431.416c-.1.01-.2.007-.293.007H1320c.081.2.164.37.225.552.041.122.107.148.228.148,1.251,0,2.5-.006,3.754,0,.151,0,.177-.058.2-.181a2.992,2.992,0,0,1,5.26-1.5c.031.035.041.106.117.091a3.427,3.427,0,0,0-.312-1.456.255.255,0,0,0-.272-.177c-.769.009-1.538.005-2.307,0C1326.645,314.2,1326.588,314.153,1326.526,313.925Zm-7.223-.495a7.761,7.761,0,0,0,.377,2.39c.106.343.1.331.457.348.176.009.217-.054.244-.214a1.091,1.091,0,0,1,.762-.919c.137-.045.157-.105.158-.228a17.094,17.094,0,0,1,.029-1.737,2.079,2.079,0,0,1,1.331-1.924c.084-.031.078-.072.061-.136-.05-.182-.1-.363-.144-.547-.018-.076-.036-.117-.115-.057a.476.476,0,0,1-.313.072c-.726,0-1.452,0-2.177,0-.086,0-.144.007-.176.106A9.021,9.021,0,0,0,1319.3,313.431Zm8.068,3.983v0c.751,0,1.5,0,2.252,0,.117,0,.168,0,.143-.155a2.449,2.449,0,0,0-2.878-2.008,2.5,2.5,0,0,0-1.932,1.971c-.023.143,0,.2.163.2C1325.869,317.408,1326.62,317.413,1327.37,317.413Zm-4.5-9.631c.09-.037.155-.068.224-.092a.921.921,0,0,1,.985.2.891.891,0,0,1,.286.928,1.171,1.171,0,0,1-.5.675c-.235.163-.476.319-.718.471a.145.145,0,0,0-.079.191q.109.377.2.759c.024.1.069.135.175.134.738-.005,1.476-.007,2.215,0,.125,0,.151-.038.144-.154a7.867,7.867,0,0,0-.439-2.27,3.668,3.668,0,0,0-1.237-1.75.206.206,0,0,0-.258-.024.968.968,0,0,1-.407.152c-.455.017-.567.3-.578.678C1322.877,307.706,1322.874,307.735,1322.872,307.782Zm1.547,3.813c-.427,0-.856-.023-1.281.005a1.394,1.394,0,0,0-1.22,1.251,13.181,13.181,0,0,0-.07,2.009c0,.108.066.1.133.1.244,0,.489-.007.732,0,.128.005.15-.044.149-.158,0-.446-.005-.891.007-1.337a.712.712,0,0,1,.812-.791,11.629,11.629,0,0,0,1.28-.029.87.87,0,0,0,.843-.907c.006-.117-.029-.146-.141-.145C1325.249,311.6,1324.833,311.6,1324.418,311.6Zm5.637-.845v0c-.629,0-1.257,0-1.886,0-.112,0-.146.029-.144.143.007.378.008.757,0,1.135,0,.126.04.148.154.147,1.141,0,2.283,0,3.424,0a.447.447,0,0,0,.492-.485c0-.244-.009-.489,0-.732.008-.154-.025-.207-.195-.2C1331.289,310.757,1330.672,310.75,1330.056,310.75Zm-6.5-4.364c.063-.033.1-.047.126-.066a1.9,1.9,0,0,0,.871-1.951,1.769,1.769,0,0,0-3.485-.189c-.03.129-.01.165.128.163.549-.007,1.1,0,1.646,0,.524,0,.713.191.713.72C1323.555,305.493,1323.554,305.926,1323.554,306.386Zm-7.091,9.068a2.2,2.2,0,0,0-1.9,1.31c-.047.1-.042.14.08.168,1.329.3,2.657.607,3.986.91.048.011.114.067.149.006s-.036-.108-.075-.151c-.621-.7-1.247-1.388-1.862-2.089A.374.374,0,0,0,1316.463,315.454Zm13.587-6.388v0c.635,0,1.27,0,1.9,0,.109,0,.153-.022.144-.14-.011-.14,0-.281,0-.421a.432.432,0,0,0-.43-.436q-1.6-.008-3.2,0a.429.429,0,0,0-.43.433c-.005.122.008.245,0,.366-.016.153.022.208.193.2C1328.829,309.058,1329.44,309.066,1330.05,309.066Zm-2.653,8.9c-.531,0-1.062,0-1.593,0-.139,0-.165.034-.123.169a1.781,1.781,0,0,0,3.419.011c.044-.138.026-.183-.128-.181C1328.447,317.968,1327.922,317.964,1327.4,317.964Zm-10.81,1.242a1.538,1.538,0,0,0,1.353-.787c.053-.094.082-.145-.071-.179q-1.334-.295-2.662-.617c-.172-.042-.181.02-.169.154A1.55,1.55,0,0,0,1316.587,319.205Zm13.479-9.007v0h1.645c.385,0,.378,0,.388-.389,0-.149-.032-.193-.188-.193-1.164.006-2.328,0-3.491,0-.394,0-.388,0-.4.4,0,.138.027.186.177.184C1328.824,310.193,1329.445,310.2,1330.067,310.2ZM1323,305.721c0-.225-.007-.451,0-.676.005-.121-.033-.158-.154-.156-.408.007-.816.005-1.224,0-.1,0-.146.022-.164.134a1.363,1.363,0,0,0,1.417,1.541c.093-.008.126-.036.124-.131C1323,306.2,1323,305.958,1323,305.721Zm-1.349,4.205c.134,0,.269,0,.4,0a.387.387,0,0,0,.239-.069c.392-.258.787-.512,1.18-.768a.864.864,0,0,0,.319-.32.369.369,0,0,0-.049-.442.4.4,0,0,0-.428-.133.759.759,0,0,0-.3.176c-.236.2-.486.392-.7.612a1.3,1.3,0,0,1-1.062.459c-.145-.012-.166.06-.162.186.009.3,0,.3.3.3Zm.23,6.236h.493c.527,0,.524,0,.486-.533-.007-.1-.043-.126-.133-.125-.39,0-.779-.007-1.168,0a.614.614,0,0,0-.631.48c-.027.115-.016.182.133.176C1321.337,316.155,1321.611,316.162,1321.885,316.162Zm-4.035-7.277c0,.316.007.607,0,.9,0,.127.043.15.156.147.292-.007.584,0,.875,0,.085,0,.186.027.251-.01.087-.049.017-.166.042-.25.005-.017.006-.036.011-.054.025-.085.1-.207.065-.245-.053-.064-.171-.076-.262-.109l-.1-.036Zm2.311,1.042c.406,0,.406,0,.386-.317,0-.018,0-.036,0-.055,0-.036-.023-.059-.058-.053a3.716,3.716,0,0,0-.65.075.2.2,0,0,0-.114.243c.019.1.1.109.183.107S1320.076,309.927,1320.161,309.927Z" transform="translate(0 0)" fill="#040303"/>
    <path id="Path_271" data-name="Path 271" d="M1381.107,472.523c.285-.034.314-.059.4-.341.156-.538.316-1.075.467-1.614.03-.108.075-.149.187-.141a2.8,2.8,0,0,0,.439,0c.159-.014.2.023.142.184a9.539,9.539,0,0,0-.407,1.871,8.189,8.189,0,0,0,.356,3.448c.149.476.333.94.53,1.419a.692.692,0,0,1-.7-.21c-.555-.665-1.147-1.3-1.728-1.942a.261.261,0,0,1-.071-.291c.131-.412.24-.831.368-1.243a.339.339,0,0,0-.154-.451Z" transform="translate(-63.538 -159.951)" fill="#d51d4f"/>
    <path id="Path_272" data-name="Path 272" d="M1424.35,471.5a9.031,9.031,0,0,1,.494-2.848c.032-.1.09-.106.176-.106.726,0,1.452,0,2.177,0a.475.475,0,0,0,.313-.072c.078-.061.1-.02.115.057.043.183.094.365.145.547.018.065.023.1-.061.136a2.079,2.079,0,0,0-1.331,1.924,17.094,17.094,0,0,0-.029,1.737c0,.123-.021.184-.158.228a1.09,1.09,0,0,0-.762.919c-.027.16-.069.223-.244.214-.353-.017-.351-.006-.457-.348A7.765,7.765,0,0,1,1424.35,471.5Z" transform="translate(-105.047 -158.066)" fill="#fdfdfd"/>
    <path id="Path_273" data-name="Path 273" d="M1445.07,540.922c.062.227.119.273.363.274.769,0,1.539.005,2.308,0a.255.255,0,0,1,.272.177,3.436,3.436,0,0,1,.312,1.456c-.076.016-.086-.055-.117-.091a2.992,2.992,0,0,0-5.26,1.5c-.021.122-.047.182-.2.181-1.251-.009-2.5-.007-3.755,0-.12,0-.187-.026-.228-.148-.061-.182-.144-.357-.225-.552h2.68c.1,0,.2,0,.293-.007a.432.432,0,0,0,.431-.416,1.554,1.554,0,0,0,.008-.2c0-.58.005-1.16,0-1.74,0-.123.037-.153.154-.152.647.005,1.294,0,1.941,0,.229,0,.291-.053.347-.268Z" transform="translate(-118.544 -226.997)" fill="#fac21c"/>
    <path id="Path_274" data-name="Path 274" d="M1542.089,569.247c-.751,0-1.5-.006-2.252,0-.168,0-.186-.053-.163-.2a2.5,2.5,0,0,1,1.932-1.971,2.449,2.449,0,0,1,2.878,2.008c.025.151-.025.155-.143.155-.751,0-1.5,0-2.252,0Z" transform="translate(-214.719 -251.833)" fill="#d51d4f"/>
    <path id="Path_275" data-name="Path 275" d="M1497.272,396.552c0-.047.005-.077.006-.107.011-.38.123-.661.578-.678a.966.966,0,0,0,.407-.152.206.206,0,0,1,.259.024,3.666,3.666,0,0,1,1.237,1.75,7.863,7.863,0,0,1,.439,2.27c.008.116-.018.155-.143.154-.738-.005-1.477,0-2.215,0-.105,0-.151-.031-.175-.134q-.088-.382-.2-.759a.144.144,0,0,1,.079-.191c.242-.152.483-.308.718-.471a1.171,1.171,0,0,0,.5-.675.891.891,0,0,0-.285-.928.921.921,0,0,0-.985-.2C1497.427,396.485,1497.362,396.515,1497.272,396.552Z" transform="translate(-174.4 -88.77)" fill="#e9e7e9"/>
    <path id="Path_276" data-name="Path 276" d="M1478.85,493.151c.415,0,.83,0,1.245,0,.112,0,.146.027.141.145a.87.87,0,0,1-.843.907,11.637,11.637,0,0,1-1.28.029.712.712,0,0,0-.812.791c-.012.445-.01.891-.007,1.337,0,.114-.022.163-.149.158-.244-.01-.488,0-.732,0-.068,0-.137.012-.133-.1a13.164,13.164,0,0,1,.07-2.009,1.394,1.394,0,0,1,1.22-1.251C1477.994,493.128,1478.423,493.151,1478.85,493.151Z" transform="translate(-154.431 -181.556)" fill="#d51d4f"/>
    <path id="Path_277" data-name="Path 277" d="M1604.577,475.956c.616,0,1.233.007,1.849,0,.17,0,.2.05.2.2-.013.243,0,.488,0,.732a.447.447,0,0,1-.493.485c-1.141,0-2.282,0-3.424,0-.114,0-.157-.022-.154-.147.009-.378.007-.757,0-1.135,0-.114.032-.144.144-.143.628.005,1.257,0,1.886,0Z" transform="translate(-274.521 -165.206)" fill="#fac21c"/>
    <path id="Path_278" data-name="Path 278" d="M1462.651,317.1c0-.46,0-.893,0-1.325,0-.529-.19-.72-.713-.72-.549,0-1.1,0-1.646,0-.138,0-.158-.035-.128-.163a1.769,1.769,0,0,1,3.485.189,1.9,1.9,0,0,1-.871,1.951C1462.747,317.057,1462.714,317.071,1462.651,317.1Z" transform="translate(-139.097 -10.718)" fill="#d51d4f"/>
    <path id="Path_279" data-name="Path 279" d="M1328.99,571.991a.375.375,0,0,1,.382.155c.616.7,1.241,1.393,1.862,2.089.039.043.113.086.075.151s-.1,0-.149-.006c-1.329-.3-2.656-.609-3.986-.909-.122-.028-.128-.069-.08-.168A2.2,2.2,0,0,1,1328.99,571.991Z" transform="translate(-12.527 -256.537)" fill="#e9e7e9"/>
    <path id="Path_280" data-name="Path 280" d="M1511.471,517.4l-.675.006c-.05-.223-.128-.288-.37-.289-.629,0-1.257,0-1.885,0-.085,0-.2.033-.179-.124.017-.125-.021-.289.188-.29.372,0,.745,0,1.117-.006a2.236,2.236,0,0,0,.734-.131.744.744,0,0,0,.319-.172.733.733,0,0,1,.641-.2q1.547.011,3.094,0c.174,0,.22.052.207.214s0,.3,0,.457c0,.2-.045.248-.247.249l-2.563.006C1511.606,517.122,1511.527,517.184,1511.471,517.4Z" transform="translate(-184.945 -203.479)" fill="#6e6470"/>
    <path id="Path_281" data-name="Path 281" d="M1604.525,422.2c-.61,0-1.221-.008-1.831,0-.171,0-.209-.051-.193-.2.013-.121,0-.244,0-.366a.429.429,0,0,1,.43-.433q1.6-.006,3.2,0a.432.432,0,0,1,.43.436c.006.14-.007.281,0,.421.009.118-.035.141-.144.14-.635,0-1.27,0-1.9,0Z" transform="translate(-274.475 -113.132)" fill="#fac21c"/>
    <path id="Path_282" data-name="Path 282" d="M1556.025,623.361c.525,0,1.05,0,1.575,0,.154,0,.171.043.128.181a1.781,1.781,0,0,1-3.419-.011c-.042-.135-.016-.17.123-.169C1554.962,623.365,1555.494,623.361,1556.025,623.361Z" transform="translate(-228.627 -305.398)" fill="#6e6470"/>
    <path id="Path_283" data-name="Path 283" d="M1338.714,617.772a1.55,1.55,0,0,1-1.55-1.429c-.011-.134,0-.2.169-.154q1.328.323,2.662.617c.153.034.124.086.071.179A1.538,1.538,0,0,1,1338.714,617.772Z" transform="translate(-22.127 -298.567)" fill="#6e6470"/>
    <path id="Path_284" data-name="Path 284" d="M1604.592,453.425c-.622,0-1.243-.005-1.865,0-.15,0-.18-.046-.177-.184.007-.4,0-.4.4-.4,1.164,0,2.328,0,3.491,0,.156,0,.192.043.188.193-.01.389,0,.389-.388.389h-1.645Z" transform="translate(-274.525 -143.227)" fill="#d51d4f"/>
    <path id="Path_285" data-name="Path 285" d="M1469.74,357.158c0,.237,0,.475,0,.712,0,.095-.031.123-.124.131a1.362,1.362,0,0,1-1.417-1.541c.018-.112.061-.135.164-.134.408.005.816.006,1.224,0,.121,0,.159.035.154.156C1469.733,356.707,1469.74,356.933,1469.74,357.158Z" transform="translate(-146.737 -51.437)" fill="#e9e7e9"/>
    <path id="Path_286" data-name="Path 286" d="M1461.517,425.286h-.256c-.3,0-.295,0-.3-.3,0-.125.017-.2.162-.186a1.3,1.3,0,0,0,1.062-.459c.218-.221.468-.409.7-.612a.76.76,0,0,1,.3-.176.4.4,0,0,1,.428.133.369.369,0,0,1,.049.442.865.865,0,0,1-.319.32c-.393.256-.788.51-1.18.768a.387.387,0,0,1-.239.069C1461.786,425.282,1461.651,425.286,1461.517,425.286Z" transform="translate(-139.863 -115.359)" fill="#d51d4f"/>
    <path id="Path_287" data-name="Path 287" d="M1458.347,573.81c-.274,0-.548-.007-.821,0-.149.005-.16-.062-.133-.176a.613.613,0,0,1,.631-.48c.389-.012.779,0,1.168,0,.09,0,.127.029.134.125.038.533.041.533-.486.533Z" transform="translate(-136.463 -257.648)" fill="#6e6470"/>
    <path id="Path_288" data-name="Path 288" d="M1394.617,437.964l1.033.339.1.035c.091.033.208.044.262.109.031.038-.041.16-.065.245-.005.017-.006.036-.011.053-.025.084.045.2-.042.25-.065.036-.166.01-.251.01-.292,0-.584,0-.875,0-.113,0-.16-.02-.156-.147C1394.624,438.571,1394.617,438.28,1394.617,437.964Z" transform="translate(-76.767 -129.078)" fill="#fac21c"/>
    <path id="Path_289" data-name="Path 289" d="M1433.274,450.978c-.085,0-.17,0-.255,0s-.164-.006-.183-.107a.2.2,0,0,1,.114-.243,3.709,3.709,0,0,1,.65-.075c.035-.006.056.017.058.053,0,.018,0,.036,0,.055C1433.681,450.978,1433.681,450.978,1433.274,450.978Z" transform="translate(-113.113 -141.051)" fill="#e9e7e9"/>
  </g>
</svg>
