<svg xmlns="http://www.w3.org/2000/svg" width="16.945" height="22.594" viewBox="0 0 16.945 22.594">
  <g id="ticket" transform="translate(-3)">
    <path id="Path_592" data-name="Path 592" d="M15.238,0h-.122a1.9,1.9,0,0,0-1.827,1.442,1.883,1.883,0,0,1-3.632,0A1.9,1.9,0,0,0,7.829,0H7.707A4.713,4.713,0,0,0,3,4.707V19.769a2.824,2.824,0,0,0,2.824,2.824H7.829a1.9,1.9,0,0,0,1.827-1.442,1.883,1.883,0,0,1,3.632,0,1.9,1.9,0,0,0,1.827,1.442h2.005a2.824,2.824,0,0,0,2.824-2.824V4.707A4.713,4.713,0,0,0,15.238,0Zm1.883,20.711L15.1,20.651a3.766,3.766,0,0,0-7.274.059H5.824a.941.941,0,0,1-.941-.941V16H6.766a.941.941,0,1,0,0-1.883H4.883V4.707A2.824,2.824,0,0,1,7.707,1.883l.135.059a3.775,3.775,0,0,0,3.631,2.765,3.832,3.832,0,0,0,3.665-2.824h.1a2.824,2.824,0,0,1,2.824,2.824v9.414H16.18a.941.941,0,0,0,0,1.883h1.883v3.766A.941.941,0,0,1,17.121,20.711Z" transform="translate(0 0)" fill="#d51d4f"/>
    <path id="Path_593" data-name="Path 593" d="M12.824,15H10.941a.941.941,0,1,0,0,1.883h1.883a.941.941,0,1,0,0-1.883Z" transform="translate(-0.41 -0.879)" fill="#fac21c"/>
  </g>
</svg>
